<!-- Generator: Adobe Illustrator 19.1.0, SVG Export Plug-In  -->
<svg version="1.1"
	 xmlns="http://www.w3.org/2000/svg" xmlns:xlink="http://www.w3.org/1999/xlink" xmlns:a="http://ns.adobe.com/AdobeSVGViewerExtensions/3.0/"
	 x="0px" y="0px" width="170.078px" height="32.004px" viewBox="0 0 170.078 32.004"
	 style="enable-background:new 0 0 170.078 32.004;" xml:space="preserve">
<style type="text/css">
	.st0{fill:#4B134D;}
	.st1{fill:#DC4D28;}
</style>
<defs>
</defs>
<g>
	<g>
		<g>
			<path class="st0" d="M38.367,10.205H35.15v3.539h-2.001V0.339h5.218c2.609,0.018,4.719,2.216,4.719,4.933
				S40.977,10.187,38.367,10.205z M41.102,5.272c0-1.805-1.232-3.288-2.77-3.288H35.15v6.577h3.182
				C39.869,8.561,41.102,7.077,41.102,5.272z"/>
			<path class="st0" d="M54.784,13.744H52.64l-1.341-3.503h-5.272l-1.322,3.503H42.56l5.505-13.404h1.215L54.784,13.744z
				 M50.674,8.597l-2.002-5.29l-2.02,5.29H50.674z"/>
			<path class="st0" d="M63.344,1.984h-4.146v11.76h-1.983V1.984h-4.146V0.339h10.276V1.984z"/>
			<path class="st0" d="M71.503,9.49l2.878,4.254h-2.198l-2.628-3.896h-3.127v3.896h-1.984V9.848V8.203V1.984V0.339h1.984h3.217
				c2.627,0.018,4.736,2.055,4.736,4.754C74.381,7.131,73.201,8.775,71.503,9.49z M66.428,8.203h3.199c1.519,0,2.77-1.287,2.77-3.11
				c0-1.805-1.251-3.109-2.77-3.109h-3.199V8.203z"/>
			<path class="st0" d="M78.477,13.744h-1.984V0.339h1.984V13.744z"/>
			<path class="st0" d="M92.364,11.885c-1.233,1.358-3.002,2.216-4.95,2.216c-3.771,0-6.809-3.163-6.809-7.059
				C80.605,3.163,83.644,0,87.414,0c1.948,0,3.717,0.858,4.969,2.234l-1.306,1.305c-0.089-0.125-0.178-0.232-0.285-0.339
				c-0.912-1.001-2.109-1.555-3.378-1.555c-1.27,0-2.484,0.554-3.378,1.555c-0.929,1.019-1.447,2.395-1.447,3.842
				c0,1.466,0.519,2.824,1.447,3.86c0.894,1.001,2.108,1.555,3.378,1.555c1.269,0,2.466-0.554,3.378-1.555
				c0.089-0.106,0.178-0.214,0.268-0.321L92.364,11.885z"/>
			<path class="st0" d="M96.054,13.744H94.07V0.339h1.983V13.744z"/>
			<path class="st0" d="M109.606,13.744h-2.145l-1.34-3.503h-5.272l-1.323,3.503h-2.145l5.505-13.404h1.215L109.606,13.744z
				 M105.496,8.597l-2.002-5.29l-2.02,5.29H105.496z"/>
		</g>
	</g>
	<g>
		<g>
			<path class="st0" d="M42.103,29.52c-0.644,1.52-2.448,2.467-4.7,2.484c-1.948,0-3.718-0.858-4.968-2.216l1.322-1.322
				c0.071,0.125,0.161,0.232,0.268,0.339c0.894,1.001,2.109,1.555,3.378,1.555c1.555-0.018,2.467-0.59,2.842-1.483
				c0.286-0.661,0.054-1.376,0.036-1.394c-0.376-1.037-1.412-1.447-2.878-1.894c-1.662-0.501-3.574-1.09-4.199-2.842
				c-0.34-0.912-0.251-1.965,0.214-2.823c1.036-1.966,3.682-2.019,3.985-2.019c1.966,0,3.718,0.858,4.969,2.234l-1.305,1.305
				c-0.09-0.125-0.179-0.232-0.286-0.34c-0.911-1-2.109-1.555-3.378-1.555c-0.018,0-1.591,0-2.198,1.144
				c-0.232,0.447-0.286,1.037-0.125,1.501c0.357,0.983,1.376,1.394,2.806,1.823c1.698,0.518,3.61,1.09,4.289,2.895
				C42.229,27.036,42.657,28.251,42.103,29.52z"/>
			<path class="st0" d="M55.379,29.788c-1.232,1.358-3.002,2.216-4.95,2.216c-3.771,0-6.809-3.163-6.809-7.06
				c0-3.878,3.039-7.041,6.809-7.041c1.948,0,3.718,0.858,4.969,2.234l-1.306,1.305c-0.089-0.125-0.178-0.232-0.285-0.34
				c-0.912-1-2.109-1.555-3.378-1.555c-1.269,0-2.484,0.555-3.378,1.555c-0.93,1.019-1.447,2.395-1.447,3.842
				c0,1.466,0.518,2.824,1.447,3.86c0.894,1.001,2.109,1.555,3.378,1.555c1.269,0,2.466-0.554,3.378-1.555
				c0.089-0.107,0.179-0.214,0.267-0.321L55.379,29.788z"/>
			<path class="st0" d="M67.197,18.243v13.404h-1.984v-5.88h-6.309v5.88h-1.983V18.243h1.983v5.879h6.309v-5.879H67.197z"/>
			<path class="st0" d="M73.103,31.647l-4.771-13.404h2.108l3.199,9.455l3.378-9.455h1.02l3.378,9.455l3.198-9.455h2.127
				l-4.772,13.404h-1.019l-3.414-9.419l-3.413,9.419H73.103z"/>
			<path class="st0" d="M97.487,31.647h-2.145l-1.341-3.503h-5.272l-1.322,3.503h-2.145l5.505-13.404h1.215L97.487,31.647z
				 M93.377,26.5l-2.002-5.29l-2.02,5.29H93.377z"/>
			<path class="st0" d="M105.729,27.393l2.878,4.254h-2.198l-2.628-3.896h-3.128v3.896h-1.983v-3.896v-1.644v-6.22v-1.644h1.983
				h3.218c2.627,0.018,4.736,2.056,4.736,4.754C108.606,25.034,107.426,26.678,105.729,27.393z M100.652,26.107h3.199
				c1.52,0,2.771-1.287,2.771-3.11c0-1.805-1.251-3.11-2.771-3.11h-3.199V26.107z"/>
			<path class="st0" d="M120.107,20.28l-7.667,9.722h7.667v1.644h-9.74v-2.038l7.649-9.723h-7.649v-1.644h8.812h0.929V20.28z"/>
			<path class="st0" d="M127.704,23.783l6.595,7.864h-2.77l-5.344-6.595l-1.947,1.627v4.969h-1.984V18.243h1.984v6.112l7.149-6.112
				h2.913L127.704,23.783z"/>
			<path class="st0" d="M147.566,24.944c0,3.896-3.056,7.06-6.809,7.06c-3.754,0-6.809-3.163-6.809-7.06
				c0-3.896,3.056-7.041,6.809-7.041C144.511,17.903,147.566,21.049,147.566,24.944z M137.379,21.102
				c-0.929,1.019-1.447,2.395-1.447,3.842c0,1.466,0.518,2.824,1.447,3.86c0.912,1.001,2.109,1.555,3.379,1.555
				c1.269,0,2.483-0.554,3.377-1.555c0.93-1.036,1.447-2.395,1.447-3.86c0-1.447-0.518-2.824-1.447-3.842
				c-0.894-1-2.108-1.555-3.377-1.555C139.488,19.547,138.291,20.102,137.379,21.102z"/>
			<path class="st0" d="M154.677,28.108h-3.216v3.539h-2.003V18.243h5.219c2.609,0.018,4.719,2.216,4.719,4.933
				C159.395,25.892,157.286,28.09,154.677,28.108z M157.412,23.175c0-1.805-1.234-3.288-2.771-3.288h-3.18v6.577h3.18
				C156.178,26.463,157.412,24.98,157.412,23.175z"/>
			<path class="st0" d="M163.162,19.887v4.183h5.666v1.643h-5.666v5.934h-1.983V18.243h8.899v1.644H163.162z"/>
		</g>
	</g>
	<g>
		<g>
			<path class="st1" d="M19.41,16.134c-3.981-1.916-6.33-3.881-6.33-7.712c0-0.663,0.102-1.271,0.284-1.822
				c-0.394-0.919-1.071-1.619-1.86-2.112c-0.665,1.112-1.06,2.453-1.06,4.033c0,4.814,3.02,7.909,7.719,9.923
				c3.789,1.572,7.049,4.175,7.049,8.547c0,2.027-0.844,3.496-2.004,4.656h4.642c0-2.32-0.001-2.928-0.001-4.853
				C27.848,22.176,25.691,18.786,19.41,16.134z"/>
			<path class="st1" d="M19.727,0.317c-1.603,0-3.294,0.36-4.788,1.098c0.656,0.488,1.245,1.057,1.746,1.707
				c0.91-0.395,1.889-0.594,2.802-0.594c3.721,0,4.881,0.11,8.362,2.431V0.317C24.367,0.317,23.207,0.317,19.727,0.317z"/>
		</g>
		<g>
			<path class="st1" d="M11.257,14.555c-0.815,0.552-1.757,1.068-2.818,1.579C2.157,18.787,0,22.176,0,26.794
				c0,1.925,0,2.533,0,4.853h4.641c-1.16-1.16-2.004-2.629-2.004-4.656c0-4.372,3.261-6.976,7.049-8.547
				c1.265-0.542,2.407-1.164,3.402-1.875C12.374,15.943,11.764,15.272,11.257,14.555z"/>
			<path class="st1" d="M14.769,8.421c0,0.788-0.105,1.493-0.297,2.138c0.334,0.914,0.926,1.715,1.842,2.479
				c0.706-1.308,1.092-2.803,1.092-4.519c0-5.6-4.968-8.203-9.283-8.203c-3.481,0-4.642,0-8.122,0v4.642
				c3.48-2.32,4.641-2.431,8.362-2.431C11.239,2.527,14.769,4.492,14.769,8.421z"/>
		</g>
	</g>
	<g>
		<path class="st1" d="M117.109,12.495v0.848c-0.565,0.308-1.218,0.462-1.958,0.462c-0.602,0-1.111-0.121-1.53-0.363
			c-0.419-0.241-0.751-0.574-0.995-0.998c-0.244-0.424-0.366-0.883-0.366-1.377c0-0.784,0.28-1.442,0.839-1.977
			c0.559-0.535,1.248-0.802,2.067-0.802c0.566,0,1.194,0.148,1.886,0.443v0.829c-0.63-0.36-1.245-0.54-1.847-0.54
			c-0.616,0-1.129,0.194-1.536,0.583c-0.407,0.39-0.611,0.877-0.611,1.463c0,0.592,0.201,1.077,0.602,1.458
			c0.401,0.38,0.914,0.571,1.538,0.571C115.851,13.096,116.487,12.896,117.109,12.495z"/>
		<path class="st1" d="M120.593,8.281c0.832,0,1.525,0.264,2.079,0.79c0.553,0.527,0.83,1.188,0.83,1.982
			c0,0.794-0.279,1.451-0.839,1.972c-0.559,0.521-1.263,0.781-2.112,0.781c-0.811,0-1.488-0.26-2.028-0.781
			c-0.541-0.521-0.812-1.172-0.812-1.957c0-0.804,0.272-1.47,0.817-1.997C119.072,8.545,119.761,8.281,120.593,8.281z
			 M120.624,9.014c-0.616,0-1.123,0.193-1.52,0.579c-0.396,0.385-0.595,0.877-0.595,1.476c0,0.581,0.198,1.064,0.597,1.45
			c0.397,0.385,0.896,0.579,1.494,0.579c0.601,0,1.103-0.197,1.504-0.59c0.402-0.394,0.603-0.883,0.603-1.469
			c0-0.57-0.2-1.05-0.603-1.439C121.703,9.208,121.209,9.014,120.624,9.014z"/>
		<path class="st1" d="M125.905,8.328h0.542l2.415,5.416h-0.789l-0.718-1.596h-2.298l-0.673,1.596h-0.793L125.905,8.328z
			 M127.038,11.462l-0.869-1.951l-0.806,1.951H127.038z"/>
		<path class="st1" d="M133.786,12.495v0.848c-0.565,0.308-1.219,0.462-1.959,0.462c-0.601,0-1.111-0.121-1.53-0.363
			c-0.418-0.241-0.75-0.574-0.994-0.998c-0.244-0.424-0.366-0.883-0.366-1.377c0-0.784,0.279-1.442,0.838-1.977
			c0.56-0.535,1.249-0.802,2.068-0.802c0.565,0,1.194,0.148,1.886,0.443v0.829c-0.63-0.36-1.245-0.54-1.847-0.54
			c-0.617,0-1.129,0.194-1.536,0.583c-0.407,0.39-0.611,0.877-0.611,1.463c0,0.592,0.2,1.077,0.602,1.458
			c0.4,0.38,0.914,0.571,1.538,0.571C132.526,13.096,133.164,12.896,133.786,12.495z"/>
		<path class="st1" d="M138.581,8.358h0.77v5.385h-0.77V11.4h-3.026v2.344h-0.771V8.358h0.771v2.329h3.026V8.358z"/>
		<path class="st1" d="M144.066,11.487l-0.586-0.356c-0.368-0.225-0.629-0.445-0.785-0.662c-0.155-0.217-0.232-0.467-0.232-0.749
			c0-0.424,0.147-0.769,0.441-1.033c0.294-0.265,0.677-0.397,1.146-0.397c0.449,0,0.862,0.126,1.237,0.378v0.876
			c-0.388-0.373-0.806-0.56-1.253-0.56c-0.252,0-0.458,0.058-0.62,0.174c-0.162,0.117-0.243,0.266-0.243,0.447
			c0,0.162,0.06,0.312,0.179,0.453c0.12,0.141,0.311,0.288,0.575,0.443l0.59,0.349c0.656,0.392,0.984,0.892,0.984,1.498
			c0,0.432-0.145,0.783-0.434,1.053c-0.289,0.27-0.665,0.404-1.127,0.404c-0.532,0-1.017-0.163-1.453-0.491v-0.979
			c0.416,0.527,0.898,0.792,1.445,0.792c0.241,0,0.442-0.067,0.604-0.202c0.16-0.135,0.24-0.303,0.24-0.505
			C144.775,12.092,144.539,11.781,144.066,11.487z"/>
		<path class="st1" d="M146.432,8.358h3.054v0.686h-2.282v1.643h2.205v0.689h-2.205v1.673h2.355v0.686h-3.127V8.358z"/>
		<path class="st1" d="M154.482,8.358h0.932l-2.154,2.597l2.305,2.788h-0.931l-1.835-2.232l-1.852,2.232h-0.941l2.317-2.789
			l-2.151-2.597h0.94l1.69,2.057L154.482,8.358z"/>
		<path class="st1" d="M159.915,8.358h0.774v3.057c0,0.414-0.03,0.726-0.09,0.937c-0.061,0.21-0.136,0.386-0.224,0.526
			c-0.089,0.14-0.197,0.265-0.326,0.375c-0.427,0.368-0.984,0.551-1.673,0.551c-0.701,0-1.265-0.183-1.688-0.547
			c-0.129-0.113-0.237-0.24-0.326-0.379c-0.088-0.14-0.161-0.312-0.22-0.515c-0.058-0.203-0.086-0.522-0.086-0.956V8.358h0.774
			v3.057c0,0.507,0.058,0.858,0.173,1.056c0.116,0.198,0.292,0.356,0.528,0.476c0.237,0.12,0.516,0.18,0.837,0.18
			c0.457,0,0.83-0.12,1.118-0.358c0.151-0.129,0.261-0.281,0.327-0.455c0.067-0.175,0.101-0.475,0.101-0.898V8.358z"/>
		<path class="st1" d="M163.312,8.328h0.542l2.415,5.416h-0.789l-0.718-1.596h-2.298l-0.673,1.596H161L163.312,8.328z
			 M164.445,11.462l-0.868-1.951l-0.807,1.951H164.445z"/>
		<path class="st1" d="M166.883,8.358h0.771v4.683h2.425v0.702h-3.195V8.358z"/>
	</g>
</g>
</svg>